<svg width="65" height="65" viewBox="0 0 65 65" fill="none" xmlns="http://www.w3.org/2000/svg">
<g filter="url(#filter0_d)">
<circle opacity="0.6" cx="32.5" cy="32.5" r="22.5" fill="black"/>
<path d="M41.5 28.5625V38.6875C41.5 39.1562 41.3359 39.5547 41.0078 39.8828C40.6797 40.2109 40.2812 40.375 39.8125 40.375H25.1875C24.7188 40.375 24.3203 40.2109 23.9922 39.8828C23.6641 39.5547 23.5 39.1562 23.5 38.6875V28.5625C23.5 28.0937 23.6641 27.6953 23.9922 27.3672C24.3203 27.0391 24.7188 26.875 25.1875 26.875H28.2812L28.7031 25.7148C28.7969 25.5039 28.9141 25.3164 29.0547 25.1523C29.2188 24.9883 29.4062 24.8594 29.6172 24.7656C29.8281 24.6719 30.0508 24.625 30.2852 24.625H34.7148C35.0664 24.625 35.3828 24.7305 35.6641 24.9414C35.9453 25.1289 36.1562 25.3867 36.2969 25.7148L36.7188 26.875H39.8125C40.2812 26.875 40.6797 27.0391 41.0078 27.3672C41.3359 27.6953 41.5 28.0937 41.5 28.5625ZM35.4883 36.6133C36.3086 35.793 36.7188 34.7969 36.7188 33.625C36.7188 32.4531 36.3086 31.457 35.4883 30.6367C34.668 29.8164 33.6719 29.4062 32.5 29.4062C31.3281 29.4062 30.332 29.8164 29.5117 30.6367C28.6914 31.457 28.2812 32.4531 28.2812 33.625C28.2812 34.7969 28.6914 35.793 29.5117 36.6133C30.332 37.4336 31.3281 37.8437 32.5 37.8437C33.6719 37.8437 34.668 37.4336 35.4883 36.6133ZM34.6797 31.4453C35.2891 32.0547 35.5938 32.7812 35.5938 33.625C35.5938 34.4687 35.2891 35.1953 34.6797 35.8047C34.0703 36.4141 33.3438 36.7187 32.5 36.7187C31.6562 36.7187 30.9297 36.4141 30.3203 35.8047C29.7109 35.1953 29.4062 34.4687 29.4062 33.625C29.4062 32.7812 29.7109 32.0547 30.3203 31.4453C30.9297 30.8359 31.6562 30.5312 32.5 30.5312C33.3438 30.5312 34.0703 30.8359 34.6797 31.4453Z" fill="white"/>
</g>
<defs>
<filter id="filter0_d" x="0" y="0" width="65" height="65" filterUnits="userSpaceOnUse" color-interpolation-filters="sRGB">
<feFlood flood-opacity="0" result="BackgroundImageFix"/>
<feColorMatrix in="SourceAlpha" type="matrix" values="0 0 0 0 0 0 0 0 0 0 0 0 0 0 0 0 0 0 127 0"/>
<feOffset/>
<feGaussianBlur stdDeviation="5"/>
<feColorMatrix type="matrix" values="0 0 0 0 0 0 0 0 0 0 0 0 0 0 0 0 0 0 0.15 0"/>
<feBlend mode="normal" in2="BackgroundImageFix" result="effect1_dropShadow"/>
<feBlend mode="normal" in="SourceGraphic" in2="effect1_dropShadow" result="shape"/>
</filter>
</defs>
</svg>
